<svg class="big-cursor webdev-picto" xmlns="http://www.w3.org/2000/svg" xmlns:xlink="http://www.w3.org/1999/xlink" viewBox="0 0 200 171.91"> <g id="Cadre"> <path d="M187.69,14H12.32A12.34,12.34,0,0,0,0,26.36V186H200V26.36A12.33,12.33,0,0,0,187.69,14Zm4.1,163.7H8.21V42.35H191.79ZM8.21,34.14V26.36a4.11,4.11,0,0,1,4.11-4.1H187.69a4.11,4.11,0,0,1,4.1,4.1v7.78Z" transform="translate(0 -14.04)"></path> </g> <g id="Slash"> <rect x="47.97" y="103.97" width="104.07" height="8.21" transform="matrix(-0.37218,0.92816,-0.92816,-0.37218,237.53145,41.42505)" data-svg-origin="100.00500106811523 108.07500123977661" style="translate: none; rotate: none; scale: none; transform-origin: 0px 0px;"></rect> </g> <g id="Div-droite" data-svg-origin="135.92999267578125 62.529998779296875" transform="matrix(1,0,0,1,8.4625,0)" style="translate: none; rotate: none; scale: none; transform-origin: 0px 0px;"> <polygon points="141.74 118.63 169.78 90.58 141.74 62.53 135.93 68.33 158.17 90.58 135.93 112.82 141.74 118.63"></polygon> </g> <g id="Div-gauche" data-svg-origin="30.209999084472656 62.529998779296875" transform="matrix(1,0,0,1,-8.465,0)" style="translate: none; rotate: none; scale: none; transform-origin: 0px 0px;"> <polygon points="64.07 112.82 41.83 90.58 64.07 68.33 58.27 62.53 30.21 90.58 58.27 118.63 64.07 112.82"></polygon> </g> </svg>