<svg id="Layer_1" data-name="Layer 1" xmlns="http://www.w3.org/2000/svg" viewBox="0 0 72.4 40.18"><path d="M77.74,80.52a1.2,1.2,0,0,1-1.2-1.2v-.16c0-1.61-.06-3.2-.19-4.7a1.2,1.2,0,0,1,2.4-.2c.13,1.57.19,3.22.19,4.9v.16A1.2,1.2,0,0,1,77.74,80.52Zm-.86-9.91a1.2,1.2,0,0,1-1.17-1A38.09,38.09,0,0,0,74.51,65a1.19,1.19,0,0,1,.76-1.51,1.2,1.2,0,0,1,1.52.76,39.12,39.12,0,0,1,1.28,5,1.2,1.2,0,0,1-1,1.4Zm-3.14-9.44a1.2,1.2,0,0,1-1.07-.65,26.76,26.76,0,0,0-2.54-4,1.22,1.22,0,0,1,.22-1.69A1.2,1.2,0,0,1,72,55a28.19,28.19,0,0,1,2.77,4.4A1.2,1.2,0,0,1,74.28,61,1.16,1.16,0,0,1,73.74,61.17Zm-6-7.88a1.17,1.17,0,0,1-.8-.31,28,28,0,0,0-3.83-2.85,1.2,1.2,0,1,1,1.25-2,29.39,29.39,0,0,1,4.18,3.1,1.2,1.2,0,0,1-.8,2.1ZM15,48.7a1.2,1.2,0,0,1-.37-2.34c.08,0,1.9-.61,4.93-1.33a1.2,1.2,0,0,1,.55,2.33c-2.93.7-4.73,1.27-4.74,1.28A1.19,1.19,0,0,1,15,48.7Zm44.24-.65a1.25,1.25,0,0,1-.46-.09,35.65,35.65,0,0,0-4.58-1.54,1.2,1.2,0,0,1,.62-2.32,37.24,37.24,0,0,1,4.88,1.64,1.19,1.19,0,0,1,.65,1.57A1.2,1.2,0,0,1,59.24,48.05ZM24.73,46.36A1.2,1.2,0,0,1,24.51,44c1.67-.31,3.35-.58,5-.8a1.2,1.2,0,0,1,1.35,1,1.21,1.21,0,0,1-1,1.35c-1.61.21-3.25.47-4.88.78Zm24.88-.91-.18,0c-1.55-.23-3.19-.41-4.87-.51a1.2,1.2,0,0,1,.15-2.39c1.75.1,3.46.28,5.08.53a1.2,1.2,0,0,1-.18,2.39Zm-15-.41a1.2,1.2,0,0,1-.09-2.4c1.72-.13,3.43-.21,5.07-.23h0a1.2,1.2,0,0,1,0,2.4c-1.59,0-3.24.1-4.91.23Z" transform="translate(-13.8 -42.41)"/><path d="M77.3,82.59a2.64,2.64,0,0,1-2.14-1.16l-6.59-9A1.2,1.2,0,1,1,70.5,71l6.59,9c.21.28.21.28.42,0L84,71A1.2,1.2,0,1,1,86,72.43l-6.52,9a2.65,2.65,0,0,1-2.14,1.17Z" transform="translate(-13.8 -42.41)"/></svg>