<svg id="Layer_1" data-name="Layer 1" xmlns="http://www.w3.org/2000/svg" viewBox="0 0 44.54 64.17"><path d="M66.84,58.34V36.14a5.72,5.72,0,1,0-11.44,0v19L44.42,37a5.75,5.75,0,0,0-4.9-2.77,5.72,5.72,0,0,0-4.9,8.67L41,53.44a6,6,0,0,0-1-.09,5.77,5.77,0,0,0-2.94.82,5.71,5.71,0,0,0-2.61,3.52,5.78,5.78,0,0,0,.13,3.17,5.57,5.57,0,0,0-1.16-.13,5.72,5.72,0,0,0-4.9,8.67l2.58,4.29a.94.94,0,0,0-.06.3,20.6,20.6,0,1,0,41.2,0V66.07A8.25,8.25,0,0,0,66.84,58.34ZM61.12,32.41a3.73,3.73,0,0,1,3.72,3.73V57.88c-.26,0-.53,0-.8,0H57.4V36.14A3.73,3.73,0,0,1,61.12,32.41ZM37.6,36.71a3.8,3.8,0,0,1,1.92-.53A3.71,3.71,0,0,1,42.71,38L54.66,57.84H53.33c-1.8,0-3.09,0-4.08.57a3.22,3.22,0,0,0-1.47,2.44l-11.45-19A3.73,3.73,0,0,1,37.6,36.71ZM36.43,58.18a3.71,3.71,0,0,1,6.79-1l4.87,8.09a3.72,3.72,0,0,1-1.26,5.1,3.76,3.76,0,0,1-1.92.54,3.71,3.71,0,0,1-3.19-1.8L38.36,63.5s0,0,0,0L36.85,61A3.69,3.69,0,0,1,36.43,58.18Zm-6.59,7.38a3.73,3.73,0,0,1,6.8-1L40,70.12h0l1.5,2.5a3.72,3.72,0,1,1-6.37,3.84l-4.87-8.09A3.65,3.65,0,0,1,29.84,65.56ZM70.27,74a18.59,18.59,0,0,1-36.86,3.48v0a5.77,5.77,0,0,0,4.91,2.78,5.71,5.71,0,0,0,5.42-7.52,5.66,5.66,0,0,0,1.16.14h0a5.78,5.78,0,0,0,3-.82,5.69,5.69,0,0,0,2.6-3.57,8.23,8.23,0,0,0,3.43,1.81,8.33,8.33,0,0,0-3.22,6.58,1,1,0,0,0,2,0A6.34,6.34,0,0,1,59,70.56a1,1,0,0,0,0-2H55.9a6.24,6.24,0,0,1-6.23-6.23c0-1.85.42-2.08.59-2.19a7.9,7.9,0,0,1,3.07-.3H64a6.24,6.24,0,0,1,6.23,6.23V74Z" transform="translate(-27.73 -30.41)"/></svg>