<svg id="Layer_1" data-name="Layer 1" xmlns="http://www.w3.org/2000/svg" viewBox="0 0 85 76.27"><path d="M74,55.06a4.8,4.8,0,0,0-3.36-2.27h0a5.34,5.34,0,0,0-.69,0h0c-.18,0-.35,0-.52,0l-.14,0a3.29,3.29,0,0,0-.43.09l-.15,0a3.27,3.27,0,0,0-.53.17l.56-3.61a4.73,4.73,0,0,0-.87-3.53,5.51,5.51,0,0,0-.6-.68,5,5,0,0,0-1.14-.78,4.69,4.69,0,0,0-1.36-.42A3.63,3.63,0,0,0,64,44h-.13a4,4,0,0,0-.6,0l-.11,0a5,5,0,0,0-.53.12l-.09,0a5.2,5.2,0,0,0-.55.21l-.12,0a4.35,4.35,0,0,0-.52.29,4.9,4.9,0,0,0-.6-1,4.75,4.75,0,0,0-3-1.78,4,4,0,0,0-.68,0H57a3.83,3.83,0,0,0-.6.05h-.11a3.5,3.5,0,0,0-.56.13.29.29,0,0,0-.1,0,5.14,5.14,0,0,0-.55.2l-.06,0a4.16,4.16,0,0,0-.51.28l0,0A3.82,3.82,0,0,0,54,43l-.08.06a5,5,0,0,0-.41.39l-.07.08a5.07,5.07,0,0,0-.35.46l0,.07a5.54,5.54,0,0,0-.3.53,4.91,4.91,0,0,0-1.78-1,5,5,0,0,0-.69-.16c-.22,0-.43,0-.65-.05h-.4l-.26,0-.18,0-.27,0-.17,0-.27.08-.15,0-.33.14-.07,0a2.42,2.42,0,0,0-.39.21l-.09,0-.27.18-.13.1-.22.18-.12.12a1.62,1.62,0,0,0-.19.18L46,45a1.63,1.63,0,0,0-.17.2l-.11.15-.14.21a1.4,1.4,0,0,0-.1.16l-.13.23s-.06.11-.08.16-.07.17-.11.25l-.06.17a1.52,1.52,0,0,0-.09.28.88.88,0,0,0-.05.15,3.58,3.58,0,0,0-.09.45L41.74,67.73,39,63.94a6,6,0,0,0-1.14-1.16,5.59,5.59,0,0,0-2.47-1,4.45,4.45,0,0,0-.5,0h-.68l-.34,0-.15,0a3.86,3.86,0,0,0-.49.09h0l-.43.13-.15.05-.31.13-.16.08-.31.16-.14.08a3.62,3.62,0,0,0-.41.27,5.7,5.7,0,0,0-.82.73,5.62,5.62,0,0,0-1.11,1.83,6.1,6.1,0,0,0-.27,1.06A6.64,6.64,0,0,0,29,67.46a5.48,5.48,0,0,0,.51,2.07,5.92,5.92,0,0,0,.55.94l5.31,7.24,3.24,5.81a15.61,15.61,0,0,0,9.82,8.3,17,17,0,0,0,1.88.41l3.17.49c.35,0,.71.09,1.07.12l.26,0c.35,0,.7,0,1.05,0h0l.73,0h.23l.51,0,.28,0,.45-.06.3,0,.42-.07.3-.06.42-.1.29-.07.41-.11.29-.09.42-.14.27-.09.43-.16.24-.1.48-.22.17-.07.65-.33h0l.6-.34.19-.11.42-.27.21-.14.38-.27.22-.16.35-.27.22-.18.33-.28.22-.2.32-.29c.07-.07.14-.13.2-.2s.21-.21.31-.32l.19-.2.32-.36.15-.18.39-.47.07-.09c.15-.19.29-.39.42-.59a1,1,0,0,0,.09-.13l.31-.47.14-.22c.08-.14.16-.27.23-.41l.14-.25.21-.4.13-.27.18-.4.12-.28c.06-.13.11-.27.16-.4s.08-.19.11-.29.1-.28.14-.42a2.46,2.46,0,0,0,.09-.29c0-.14.09-.29.13-.44s0-.19.08-.29.08-.32.11-.49l.06-.24c0-.25.1-.5.14-.76l3.32-21.5a5.24,5.24,0,0,0,.05-1A4.84,4.84,0,0,0,74,55.06ZM50.66,89.94a13.14,13.14,0,0,1-3.87-1.22,14.72,14.72,0,0,1-1.39-.8,12.94,12.94,0,0,1-1.28-1A11,11,0,0,1,43,85.85a13.37,13.37,0,0,1-2.27-3.35.19.19,0,0,0,0-.09l-.73-1.33-4.37-7-3.6-4.91c-.06-.09-.12-.18-.17-.27a3.2,3.2,0,0,1-.27-.56c0-.1-.06-.2-.09-.3a3.21,3.21,0,0,1-.09-.61,4.44,4.44,0,0,1,0-.63,3.19,3.19,0,0,1,1.27-2.09,3.68,3.68,0,0,1,.39-.24l.08,0,.4-.17.07,0L34,64.1H34l.43,0h.1l.44,0a2.84,2.84,0,0,1,.31.06,3.14,3.14,0,0,1,1.78,1.2l4.38,6h0a.79.79,0,0,0,.12.15,1.12,1.12,0,0,0,.7.39l.17,0h.11l.14,0,.08,0,.14,0,0,0a.77.77,0,0,0,.18-.1,1.18,1.18,0,0,0,.3-.33,1.23,1.23,0,0,0,.16-.43l.07-.49,3.5-22.64a2.37,2.37,0,0,1,.11-.46l.07-.13a2.39,2.39,0,0,1,.13-.28l.1-.14a1.84,1.84,0,0,1,.17-.22l.12-.13.2-.17.15-.11.22-.13.17-.08.24-.09.18,0,.27,0h.19a2.07,2.07,0,0,1,.43,0,2.15,2.15,0,0,1,.47.12A2.4,2.4,0,0,1,52,48a2.57,2.57,0,0,1,0,.48L49.73,62.91a1.77,1.77,0,0,0,0,.23,1.19,1.19,0,0,0,.76,1,.86.86,0,0,0,.23.06l.18,0H51l.13,0,.09,0,.12,0,.08,0,.11-.06.07,0,.09-.08.07-.07a.86.86,0,0,0,.07-.1l0-.07.06-.13s0,0,0-.07a.79.79,0,0,0,.06-.22l2.62-17a2.28,2.28,0,0,1,.11-.45c0-.05,0-.09.07-.14a1.34,1.34,0,0,1,.13-.27l.1-.15.16-.21.13-.13.19-.18.16-.1.22-.13a.91.91,0,0,1,.17-.09l.24-.08.18,0,.27,0,.19,0a2.12,2.12,0,0,1,.43,0,2.4,2.4,0,0,1,2,2.26,2.68,2.68,0,0,1,0,.49L56.81,64a1.14,1.14,0,0,0,.36,1,1,1,0,0,0,.38.24.94.94,0,0,0,.24.06l.17,0h.13l.12,0,.09,0,.12,0a.2.2,0,0,0,.08,0l.11-.06.07-.05.1-.09a.17.17,0,0,0,.06-.06l.08-.1a.43.43,0,0,1,0-.07.91.91,0,0,0,.07-.14l0-.06a1.8,1.8,0,0,0,.06-.22l2.46-16a3.45,3.45,0,0,1,.12-.46.75.75,0,0,1,.06-.13,2.39,2.39,0,0,1,.13-.28,1.71,1.71,0,0,1,.11-.14,1.77,1.77,0,0,1,.16-.22l.13-.13a1.54,1.54,0,0,1,.19-.17l.15-.11.22-.13.17-.08a1.84,1.84,0,0,1,.25-.09l.18-.05.26,0h.19a2.16,2.16,0,0,1,.44,0,2.42,2.42,0,0,1,2,2.75l-2.47,16a.89.89,0,0,0,0,.23,1.16,1.16,0,0,0,.76,1l.23,0,.18,0h.12l.13,0,.09,0,.11,0,.09,0,.1-.06.08,0,.09-.08.06-.06a.76.76,0,0,0,.08-.11l0-.07.06-.13,0-.07.06-.21,1.28-8.34a2.5,2.5,0,0,1,.12-.45.84.84,0,0,1,.06-.14c0-.09.08-.18.13-.27l.1-.14.17-.22a.8.8,0,0,1,.13-.13,1.54,1.54,0,0,1,.19-.17.91.91,0,0,1,.16-.11l.21-.13.18-.08a1,1,0,0,1,.24-.09l.18,0,.27,0h.18a2.16,2.16,0,0,1,.44,0,2.41,2.41,0,0,1,2,2.27,2.05,2.05,0,0,1,0,.49l-3.32,21.5c-.06.38-.13.75-.22,1.12l0,.13c-.09.34-.19.68-.31,1a1,1,0,0,1-.05.16q-.18.49-.39,1c0,.06-.05.11-.07.16-.15.31-.3.62-.47.92l-.07.12q-.27.47-.57.9s0,0,0,0c-.21.29-.42.57-.64.85l-.06.07c-.23.27-.46.52-.7.77l-.11.11c-.24.24-.48.46-.74.68l-.13.12c-.26.21-.52.42-.79.61l-.13.09a9.9,9.9,0,0,1-.87.56l-.07,0c-.3.18-.61.34-.92.49l-.06,0c-.31.15-.64.28-1,.41l-.14,0c-.32.12-.64.22-1,.31l-.17,0c-.32.09-.65.16-1,.23l-.16,0c-.35.06-.69.11-1,.14H57c-.36,0-.73,0-1.1,0h0l-.89,0-.22,0-.91-.1Z" transform="translate(-12.5 -29.37)"/><path d="M82,36.11a1.31,1.31,0,0,0-1.8.37,1.29,1.29,0,0,0,.37,1.79,18.29,18.29,0,0,1,8.16,14.86,1.3,1.3,0,0,0,1.3,1.27h0a1.28,1.28,0,0,0,1.27-1.32,20.84,20.84,0,0,0-9.32-17Z" transform="translate(-12.5 -29.37)"/><path d="M82.91,29.51a1.29,1.29,0,1,0-1.19,2.3A24.41,24.41,0,0,1,94.66,57a1.29,1.29,0,0,0,1.1,1.46l.19,0a1.31,1.31,0,0,0,1.28-1.12,27,27,0,0,0-14.32-27.8Z" transform="translate(-12.5 -29.37)"/><path d="M29.41,96.73a18.24,18.24,0,0,1-8.16-14.86A1.3,1.3,0,0,0,20,80.6h0a1.3,1.3,0,0,0-1.27,1.32,20.88,20.88,0,0,0,9.33,17,1.33,1.33,0,0,0,.71.21,1.29,1.29,0,0,0,.72-2.37Z" transform="translate(-12.5 -29.37)"/><path d="M28.28,103.19A24.41,24.41,0,0,1,15.34,78.05a1.3,1.3,0,0,0-2.57-.37,27,27,0,0,0,14.32,27.81,1.25,1.25,0,0,0,.59.14,1.29,1.29,0,0,0,.6-2.44Z" transform="translate(-12.5 -29.37)"/></svg>